# xmcd
#
# Track frame offsets:
#	150
#	9470
#	21360
#	35735
#	50315
#	69815
#	91485
#	102010
#	116265
#	127227
#	137885
#
# Disc length: 2023 seconds
#
# Revision: 0
# Processed by: cddbd v1.5.2PL0 Copyright (c) Steve Scherf et al.
# Submitted via: EasyCDDAExtractor 10.2.0.1
#
DISCID=8f07e50b
DTITLE=The Osborne Brothers - The Osborne Brothers... Live In Germany - Disc 2
DYEAR=2007
DGENRE=Bluegrass
TTITLE0=Katy Hill
TTITLE1=Georgia Mules And Country Boys
TTITLE2=Windy City
TTITLE3=Rank Strangers
TTITLE4=Nearer My God To Thee
TTITLE5=Orange Blossom Special
TTITLE6=Wreck Of The Old '97
TTITLE7=Blue Ridge Cabin Home
TTITLE8=Midnight Flyer
TTITLE9=Georgia Pineywoods
TTITLE10=Tennessee Hound Dog
EXTD=
EXTT0=
EXTT1=
EXTT2=
EXTT3=
EXTT4=
EXTT5=
EXTT6=
EXTT7=
EXTT8=
EXTT9=
EXTT10=
PLAYORDER=
